<svg xmlns="http://www.w3.org/2000/svg" width="300" height="300" viewBox="0 0 300 300" fill="none">
    <rect width="300" height="300" rx="60" fill="#0D0D0D"/>
    <path fill-rule="evenodd" clip-rule="evenodd" d="M214.069 207.966C213.747 209.133 213.377 210.293 212.959 211.443C200.233 246.406 147.403 259.275 94.9586 240.187C42.5144 221.098 10.316 177.282 23.0414 142.319C33.9469 112.356 74.3066 98.6197 118.635 107.318C129.916 98.3032 143.565 90.57 158.959 84.9673C211.403 65.8792 264.233 78.7481 276.959 113.711C288.936 146.62 261.114 187.373 214.069 207.966Z" fill="#6301E0" fill-opacity="0.5"/>
    <path d="M141.041 113.575C193.486 132.663 225.684 176.48 212.959 211.443C200.233 246.406 147.403 259.275 94.9586 240.187C42.5144 221.098 10.316 177.282 23.0414 142.319C35.7668 107.356 88.5971 94.4871 141.041 113.575Z" fill="#3CA3DC" fill-opacity="0.5"/>
    <path d="M276.959 113.711C289.684 148.674 257.486 192.491 205.041 211.579C152.597 230.667 99.7666 217.798 87.0412 182.835C74.3158 147.872 106.515 104.055 158.959 84.9673C211.403 65.8792 264.233 78.7481 276.959 113.711Z" fill="#D29700" fill-opacity="0.5"/>
    <path d="M109.89 93.956C122.028 93.956 131.868 84.1161 131.868 71.978C131.868 59.8399 122.028 50 109.89 50C97.7519 50 87.912 59.8399 87.912 71.978C87.912 84.1161 97.7519 93.956 109.89 93.956Z" fill="#F69C9C" fill-opacity="0.8"/>
    <path d="M236.264 232.418C242.333 232.418 247.253 227.498 247.253 221.429C247.253 215.36 242.333 210.44 236.264 210.44C230.195 210.44 225.275 215.36 225.275 221.429C225.275 227.498 230.195 232.418 236.264 232.418Z" fill="#9CF6C0" fill-opacity="0.8"/>
</svg>
