<svg xmlns="http://www.w3.org/2000/svg" width="300" height="200" viewBox="0 0 300 200" fill="none">
    <path fill-rule="evenodd" clip-rule="evenodd" d="M214.069 157.966C213.747 159.133 213.377 160.293 212.959 161.443C200.233 196.406 147.403 209.275 94.9586 190.187C42.5144 171.098 10.316 127.282 23.0414 92.3187C33.9469 62.3561 74.3066 48.6197 118.635 57.3175C129.916 48.3032 143.565 40.57 158.959 34.9673C211.403 15.8792 264.233 28.7481 276.959 63.7109C288.936 96.6198 261.114 137.373 214.069 157.966Z" fill="#6301E0" fill-opacity="0.5"/>
    <ellipse rx="101.053" ry="67.3685" transform="matrix(0.939693 0.34202 0.34202 -0.939693 118 126.881)" fill="#3CA3DC" fill-opacity="0.5"/>
    <ellipse rx="67.3685" ry="101.053" transform="matrix(0.34202 0.939693 0.939693 -0.34202 182 98.273)" fill="#D29700" fill-opacity="0.5"/>
    <circle cx="109.89" cy="21.978" r="21.978" fill="#F69C9C" fill-opacity="0.8"/>
    <circle cx="236.264" cy="171.429" r="10.989" fill="#9CF6C0" fill-opacity="0.8"/>
</svg>
